# xmcd
#
# Track frame offsets: 
#        150
#        26445
#        50520
#        62750
#        70160
#        86940
#        117092
#        129377
#        168767
#        195995
#
# Disc length: 2730 seconds
#
# Revision: 1
# Processed by: cddbd v1.5.2PL0 Copyright (c) Steve Scherf et al.
# Submitted via: ExactAudioCopy v1.3
#
DISCID=7f0aa80a
DTITLE=憂歌団 - Blues Is A-Live
DYEAR=1976
DGENRE=J - Blues
TTITLE0=Sleepy John Estes, Hammie Nixon And Yuka Dan - Mary Come On Ho
TTITLE0=me
TTITLE1=Sleepy John Estes, Hammie Nixon And Yuka Dan - Rats In My Kitc
TTITLE1=hen
TTITLE2=Sleepy John Estes, Hammie Nixon And Yuka Dan - Potato Digging 
TTITLE2=Man
TTITLE3=Sleepy John Estes, Hammie Nixon And Yuka Dan - Fox Chase
TTITLE4=Sleepy John Estes, Hammie Nixon And Yuka Dan - Sleepy John's T
TTITLE4=wist
TTITLE5=Sleepy John Estes, Hammie Nixon And Yuka Dan - Careless Love
TTITLE6=Sleepy John Estes, Hammie Nixon And Yuka Dan - I've Been Well 
TTITLE6=Warned
TTITLE7=Sleepy John Estes, Hammie Nixon And Yuka Dan - 80 Highway
TTITLE8=Sleepy John Estes, Hammie Nixon And Yuka Dan - Going To Browns
TTITLE8=ville
TTITLE9=Sleepy John Estes, Hammie Nixon And Yuka Dan - Jesus On The Ma
TTITLE9=inline
EXTD=
EXTT0=
EXTT1=
EXTT2=
EXTT3=
EXTT4=
EXTT5=
EXTT6=
EXTT7=
EXTT8=
EXTT9=
PLAYORDER=
